<?xml version="1.0" encoding="UTF-8" standalone="no"?><!-- Generator: Gravit.io --><svg xmlns="http://www.w3.org/2000/svg" xmlns:xlink="http://www.w3.org/1999/xlink" style="isolation:isolate" viewBox="0 0 900 659" width="900pt" height="659pt"><g><rect x="0" y="0" width="300" height="210" transform="matrix(1,0,0,1,0,0)" fill="rgb(95,73,140)"/><clipPath id="_clipPath_H18km42oH9I7k5L3yWzh3rkIV950eku4"><rect x="0" y="0" width="300" height="210" transform="matrix(1,0,0,1,0,0)" fill="rgb(95,73,140)"/></clipPath><g clip-path="url(#_clipPath_H18km42oH9I7k5L3yWzh3rkIV950eku4)"><text transform="matrix(1,0,0,1,98.2,118.578)" style="font-family:'Open Sans';font-weight:400;font-size:35px;font-style:normal;fill:#ffffff;stroke:none;">BUILD</text></g><rect x="300" y="0" width="300" height="210" transform="matrix(1,0,0,1,0,0)" fill="rgb(157,125,125)"/><clipPath id="_clipPath_goFk7tjYNpE7CQwDtgCKqq1uAKB7SaCK"><rect x="300" y="0" width="300" height="210" transform="matrix(1,0,0,1,0,0)" fill="rgb(157,125,125)"/></clipPath><g clip-path="url(#_clipPath_goFk7tjYNpE7CQwDtgCKqq1uAKB7SaCK)"><text transform="matrix(1,0,0,1,410.3,118.578)" style="font-family:'Open Sans';font-weight:400;font-size:35px;font-style:normal;fill:#000000;stroke:none;">TEST</text></g><rect x="600" y="0" width="300" height="210" transform="matrix(1,0,0,1,0,0)" fill="rgb(193,156,156)"/><clipPath id="_clipPath_oD70bVEcefKpmCVBScwwfGoDSs2FkLGY"><rect x="600" y="0" width="300" height="210" transform="matrix(1,0,0,1,0,0)" fill="rgb(193,156,156)"/></clipPath><g clip-path="url(#_clipPath_oD70bVEcefKpmCVBScwwfGoDSs2FkLGY)"><text transform="matrix(1,0,0,1,683.46,118.578)" style="font-family:'Open Sans';font-weight:400;font-size:35px;font-style:normal;fill:#000000;stroke:none;">DEPLOY</text></g><rect x="0" y="262" width="300" height="397" transform="matrix(1,0,0,1,0,0)" fill="rgb(238,178,178)"/><clipPath id="_clipPath_MDvv6nP9jqxjmr8KgV3jdNdiyDOeSNn9"><rect x="0" y="262" width="300" height="397" transform="matrix(1,0,0,1,0,0)" fill="rgb(238,178,178)"/></clipPath><g clip-path="url(#_clipPath_MDvv6nP9jqxjmr8KgV3jdNdiyDOeSNn9)"><text transform="matrix(1,0,0,1,110.191,468.259)" style="font-family:'Open Sans';font-weight:400;font-size:20px;font-style:normal;fill:#000000;stroke:none;">NAVBAR</text></g><rect x="326" y="262" width="574" height="397" transform="matrix(1,0,0,1,0,0)" fill="rgb(238,178,178)"/><clipPath id="_clipPath_w6VxklHq3rPMK1JnsTykyM3Vx9kC1mTz"><rect x="326" y="262" width="574" height="397" transform="matrix(1,0,0,1,0,0)" fill="rgb(238,178,178)"/></clipPath><g clip-path="url(#_clipPath_w6VxklHq3rPMK1JnsTykyM3Vx9kC1mTz)"><text transform="matrix(1,0,0,1,504.715,467.759)" style="font-family:'Open Sans';font-weight:400;font-size:20px;font-style:normal;fill:#000000;stroke:none;">LIST/EDITOR/CONTENT</text></g></g></svg>